<svg xmlns="http://www.w3.org/2000/svg" viewBox="0 0 32 32" role="img" aria-label="溯知 · SuZhi">
  <!--
    溯知 favicon（鹿溪 CI）
    - 鹿溪绿底 #0D5E42
    - 成文章页 + 三源汇流
    - 清溪自下而上 #00D2FF
    - 标题金落点 + 源启星
  -->
  <defs>
    <linearGradient id="sz-bg" x1="3" y1="2" x2="29" y2="30" gradientUnits="userSpaceOnUse">
      <stop offset="0%" stop-color="#127A55"/>
      <stop offset="100%" stop-color="#0D5E42"/>
    </linearGradient>
    <linearGradient id="sz-stream" x1="16" y1="28" x2="16" y2="6" gradientUnits="userSpaceOnUse">
      <stop offset="0%" stop-color="#00D2FF" stop-opacity="0.4"/>
      <stop offset="50%" stop-color="#00D2FF" stop-opacity="1"/>
      <stop offset="100%" stop-color="#7CF0FF" stop-opacity="0.85"/>
    </linearGradient>
  </defs>
  <rect x="1" y="1" width="30" height="30" rx="8" fill="url(#sz-bg)"/>
  <circle cx="9" cy="8" r="6.5" fill="#ffffff" opacity="0.06"/>
  <rect x="11.4" y="5.6" width="9.2" height="12.4" rx="1.6"
        fill="#F5F7FA" fill-opacity="0.08" stroke="#F5F7FA" stroke-width="1.35"/>
  <path d="M13.2 9.2 H19.2" fill="none" stroke="#F5F7FA" stroke-width="1.15" stroke-linecap="round"/>
  <path d="M13.2 11.6 H18.2" fill="none" stroke="#F5F7FA" stroke-width="1.15" stroke-linecap="round" opacity="0.7"/>
  <path d="M8.6 24.6 C10.4 21.4, 13.4 20.2, 16 18"
        fill="none" stroke="#F5F7FA" stroke-width="1.25" stroke-linecap="round" opacity="0.9"/>
  <path d="M23.4 24.6 C21.6 21.4, 18.6 20.2, 16 18"
        fill="none" stroke="#F5F7FA" stroke-width="1.25" stroke-linecap="round" opacity="0.9"/>
  <circle cx="8.6" cy="24.6" r="1.15" fill="#F5F7FA"/>
  <circle cx="16" cy="26.2" r="1.15" fill="#F5F7FA" opacity="0.85"/>
  <circle cx="23.4" cy="24.6" r="1.15" fill="#F5F7FA"/>
  <path d="M16 27.2 C13.6 22.4, 18.6 19.4, 15.6 15.2 C13.6 12.2, 17.8 9.8, 16 6.8"
        fill="none" stroke="url(#sz-stream)" stroke-width="1.55" stroke-linecap="round"/>
  <circle cx="15.7" cy="15.4" r="1.35" fill="#F1C40F"/>
  <g transform="translate(24 7.2)">
    <path d="M0-2.05 L0.42-0.42 L2.05 0 L0.42 0.42 L0 2.05 L-0.42 0.42 L-2.05 0 L-0.42-0.42 Z" fill="#00D2FF"/>
    <circle cx="0" cy="0" r="0.4" fill="#F5F7FA"/>
  </g>
</svg>
